<?xml version="1.0" encoding="UTF-8" standalone="no"?>
<svg
   xmlns:dc="http://purl.org/dc/elements/1.1/"
   xmlns:cc="http://creativecommons.org/ns#"
   xmlns:rdf="http://www.w3.org/1999/02/22-rdf-syntax-ns#"
   xmlns:svg="http://www.w3.org/2000/svg"
   xmlns="http://www.w3.org/2000/svg"
   id="svg2"
   height="540"
   width="360"
   version="1.1">
  <metadata
     id="metadata14752">
    <rdf:RDF>
      <cc:Work
         rdf:about="">
        <dc:format>image/svg+xml</dc:format>
        <dc:type
           rdf:resource="http://purl.org/dc/dcmitype/StillImage" />
        <dc:title></dc:title>
      </cc:Work>
    </rdf:RDF>
  </metadata>
  <defs
     id="defs14750" />
  <g
     id="g518"
     transform="translate(0,-512.35999)">
    <rect
       style="fill:#ffffff;stroke:#000000"
       id="rect520"
       y="512.85999"
       x="0.5"
       rx="29.944"
       height="539"
       width="359" />
    <g
       style="fill:#ff5555"
       id="g522">
      <path
         id="path524"
         d="m 30,609.86 c 0,0 0.682,-4.182 2,-5.5 1.318,-1.318 3.637,-2 5.5,-2 1.863,0 4.182,0.682 5.5,2 1.318,1.318 2,3.637 2,5.5 0,1.863 -1,4.5 -2,5.5 -1,1 -2,1.5 -3,2.5 -1,1 -1.5,1 -2.5,2 -1,1 -1.5,1.5 -2.5,2.5 -1,1 -2.5,3 -3.5,5 -1,2 -1.5,5 -1.5,5 0,0 -0.5,-3 -1.5,-5 -1,-2 -2.5,-4 -3.5,-5 -1,-1 -1.5,-1.5 -2.5,-2.5 -1,-1 -1.5,-1 -2.5,-2 -1,-1 -2,-1.5 -3,-2.5 -1,-1 -2,-3.637 -2,-5.5 0,-1.863 0.682,-4.182 2,-5.5 1.318,-1.318 3.637,-2 5.5,-2 1.863,0 4.182,0.682 5.5,2 1.318,1.318 2,5.5 2,5.5" />
      <path
         id="path526"
         d="m 330,954.86 c 0,0 0.682,4.182 2,5.5 1.318,1.318 3.637,2 5.5,2 1.863,0 4.182,-0.682 5.5,-2 1.318,-1.318 2,-3.637 2,-5.5 0,-1.863 -1,-4.5 -2,-5.5 -1,-1 -2,-1.5 -3,-2.5 -1,-1 -1.5,-1 -2.5,-2 -1,-1 -1.5,-1.5 -2.5,-2.5 -1,-1 -2.5,-3 -3.5,-5 -1,-2 -1.5,-5 -1.5,-5 0,0 -0.5,3 -1.5,5 -1,2 -2.5,4 -3.5,5 -1,1 -1.5,1.5 -2.5,2.5 -1,1 -1.5,1 -2.5,2 -1,1 -2,1.5 -3,2.5 -1,1 -2,3.637 -2,5.5 0,1.863 0.682,4.182 2,5.5 1.318,1.318 3.637,2 5.5,2 1.863,0 4.182,-0.682 5.5,-2 1.318,-1.318 2,-5.5 2,-5.5" />
      <path
         id="path528"
         d="m 100,582.36 c 0,0 1.82,-11.153 5.333,-14.667 3.514,-3.514 9.698,-5.333 14.667,-5.333 4.969,0 11.153,1.82 14.667,5.333 3.514,3.514 5.333,9.698 5.333,14.667 0,4.969 -2.667,12 -5.333,14.667 -2.667,2.667 -5.333,4 -8,6.667 -2.667,2.667 -4,2.667 -6.667,5.333 -2.667,2.667 -4,4 -6.667,6.667 -2.667,2.667 -6.667,8 -9.333,13.333 -2.667,5.333 -4,13.333 -4,13.333 0,0 -1.333,-8 -4,-13.333 -2.667,-5.333 -6.667,-10.667 -9.333,-13.333 -2.667,-2.667 -4,-4 -6.667,-6.667 -2.667,-2.667 -4,-2.667 -6.667,-5.333 -2.667,-2.667 -5.333,-4 -8,-6.667 C 62.666,594.36 60,587.329 60,582.36 c 0,-4.969 1.82,-11.153 5.333,-14.667 3.514,-3.514 9.698,-5.333 14.667,-5.333 4.969,0 11.153,1.82 14.667,5.333 3.514,3.514 5.333,14.667 5.333,14.667" />
      <path
         id="path530"
         d="m 100,982.36 c 0,0 1.82,11.153 5.333,14.667 3.514,3.514 9.698,5.333 14.667,5.333 4.969,0 11.153,-1.82 14.667,-5.333 3.514,-3.514 5.333,-9.698 5.333,-14.667 0,-4.969 -2.667,-12 -5.333,-14.667 -2.667,-2.667 -5.333,-4 -8,-6.667 -2.667,-2.667 -4,-2.667 -6.667,-5.333 -2.667,-2.667 -4,-4 -6.667,-6.667 -2.667,-2.667 -6.667,-8 -9.333,-13.333 -2.667,-5.333 -4,-13.333 -4,-13.333 0,0 -1.333,8 -4,13.333 -2.667,5.333 -6.667,10.667 -9.333,13.333 -2.667,2.667 -4,4 -6.667,6.667 -2.667,2.667 -4,2.667 -6.667,5.333 -2.667,2.667 -5.333,4 -8,6.667 C 62.666,970.36 60,977.391 60,982.36 c 0,4.969 1.82,11.153 5.333,14.667 3.514,3.514 9.698,5.333 14.667,5.333 4.969,0 11.153,-1.82 14.667,-5.333 C 98.181,993.513 100,982.36 100,982.36" />
      <path
         id="path532"
         d="m 260,982.36 c 0,0 1.82,11.153 5.333,14.667 3.514,3.514 9.698,5.333 14.667,5.333 4.969,0 11.153,-1.82 14.667,-5.333 3.514,-3.514 5.333,-9.698 5.333,-14.667 0,-4.969 -2.667,-12 -5.333,-14.667 -2.667,-2.667 -5.333,-4 -8,-6.667 -2.667,-2.667 -4,-2.667 -6.667,-5.333 -2.667,-2.667 -4,-4 -6.667,-6.667 -2.667,-2.667 -6.667,-8 -9.333,-13.333 -2.667,-5.333 -4,-13.333 -4,-13.333 0,0 -1.333,8 -4,13.333 -2.667,5.333 -6.667,10.667 -9.333,13.333 -2.667,2.667 -4,4 -6.667,6.667 -2.667,2.667 -4,2.667 -6.667,5.333 -2.667,2.667 -5.333,4 -8,6.667 -2.667,2.667 -5.333,9.698 -5.333,14.667 0,4.969 1.82,11.153 5.333,14.667 3.514,3.514 9.698,5.333 14.667,5.333 4.969,0 11.153,-1.82 14.667,-5.333 C 258.181,993.513 260,982.36 260,982.36" />
      <path
         id="path534"
         d="m 260,582.36 c 0,0 1.82,-11.153 5.333,-14.667 3.514,-3.514 9.698,-5.333 14.667,-5.333 4.969,0 11.153,1.82 14.667,5.333 3.514,3.514 5.333,9.698 5.333,14.667 0,4.969 -2.667,12 -5.333,14.667 -2.667,2.667 -5.333,4 -8,6.667 -2.667,2.667 -4,2.667 -6.667,5.333 -2.667,2.667 -4,4 -6.667,6.667 -2.667,2.667 -6.667,8 -9.333,13.333 -2.667,5.333 -4,13.333 -4,13.333 0,0 -1.333,-8 -4,-13.333 -2.667,-5.333 -6.667,-10.667 -9.333,-13.333 -2.667,-2.667 -4,-4 -6.667,-6.667 -2.667,-2.667 -4,-2.667 -6.667,-5.333 -2.667,-2.667 -5.333,-4 -8,-6.667 C 222.666,594.36 220,587.329 220,582.36 c 0,-4.969 1.82,-11.153 5.333,-14.667 3.514,-3.514 9.698,-5.333 14.667,-5.333 4.969,0 11.153,1.82 14.667,5.333 3.514,3.514 5.333,14.667 5.333,14.667" />
      <path
         id="path536"
         d="m 260,762.36 c 0,0 1.82,-11.153 5.333,-14.667 3.514,-3.514 9.698,-5.333 14.667,-5.333 4.969,0 11.153,1.82 14.667,5.333 3.514,3.514 5.333,9.698 5.333,14.667 0,4.969 -2.667,12 -5.333,14.667 -2.667,2.667 -5.333,4 -8,6.667 -2.667,2.667 -4,2.667 -6.667,5.333 -2.667,2.667 -4,4 -6.667,6.667 -2.667,2.667 -6.667,8 -9.333,13.333 -2.667,5.333 -4,13.333 -4,13.333 0,0 -1.333,-8 -4,-13.333 -2.667,-5.333 -6.667,-10.667 -9.333,-13.333 -2.667,-2.667 -4,-4 -6.667,-6.667 -2.667,-2.667 -4,-2.667 -6.667,-5.333 -2.667,-2.667 -5.333,-4 -8,-6.667 C 222.666,774.36 220,767.329 220,762.36 c 0,-4.969 1.82,-11.153 5.333,-14.667 3.514,-3.514 9.698,-5.333 14.667,-5.333 4.969,0 11.153,1.82 14.667,5.333 3.514,3.514 5.333,14.667 5.333,14.667" />
      <path
         id="path538"
         d="m 30,542.36 c -5.54,0 -10,4.46 -10,10 l 0,20 0,10 c 0,5.54 4.46,10 10,10 5.54,0 10,-4.46 10,-10 l 0,-10 c 0,-5.54 -4.46,-10 -10,-10 -1.823,0 -3.532,0.499 -5,1.344 l 0,-11.344 c 0,-2.77 2.23,-5 5,-5 2.77,0 5,2.23 5,5 l 0,1 5,0 0,-1 c 0,-5.54 -4.46,-10 -10,-10 m 0,25 c 2.77,0 5,2.23 5,5 l 0,10 c 0,2.77 -2.23,5 -5,5 -2.77,0 -5,-2.23 -5,-5 l 0,-10 c 0,-2.77 2.23,-5 5,-5" />
      <path
         id="path540"
         d="m 330,1022.36 c 5.54,0 10,-4.46 10,-10 l 0,-20 0,-10 c 0,-5.54 -4.46,-10 -10,-10 -5.54,0 -10,4.46 -10,10 l 0,10 c 0,5.54 4.46,10 10,10 1.823,0 3.532,-0.499 5,-1.344 l 0,11.344 c 0,2.77 -2.23,5 -5,5 -2.77,0 -5,-2.23 -5,-5 l 0,-1 -5,0 0,1 c 0,5.54 4.46,10 10,10 m 0,-25 c -2.77,0 -5,-2.23 -5,-5 l 0,-10 c 0,-2.77 2.23,-5 5,-5 2.77,0 5,2.23 5,5 l 0,10 c 0,2.77 -2.23,5 -5,5" />
      <path
         id="path542"
         d="m 100,762.36 c 0,0 1.82,-11.153 5.333,-14.667 3.514,-3.514 9.698,-5.333 14.667,-5.333 4.969,0 11.153,1.82 14.667,5.333 3.514,3.514 5.333,9.698 5.333,14.667 0,4.969 -2.667,12 -5.333,14.667 -2.667,2.667 -5.333,4 -8,6.667 -2.667,2.667 -4,2.667 -6.667,5.333 -2.667,2.667 -4,4 -6.667,6.667 -2.667,2.667 -6.667,8 -9.333,13.333 -2.667,5.333 -4,13.333 -4,13.333 0,0 -1.333,-8 -4,-13.333 -2.667,-5.333 -6.667,-10.667 -9.333,-13.333 -2.667,-2.667 -4,-4 -6.667,-6.667 -2.667,-2.667 -4,-2.667 -6.667,-5.333 -2.667,-2.667 -5.333,-4 -8,-6.667 C 62.666,774.36 60,767.329 60,762.36 c 0,-4.969 1.82,-11.153 5.333,-14.667 3.514,-3.514 9.698,-5.333 14.667,-5.333 4.969,0 11.153,1.82 14.667,5.333 3.514,3.514 5.333,14.667 5.333,14.667" />
    </g>
  </g>
</svg>
